# xmcd CD database file
#
# Track frame offsets:
#	150
#	15438
#	33608
#	44197
#	57546
#	77671
#	94456
#	112673
#	132642
#	146137
#	157230
#	170025
#
# Disc length: 2429 seconds
#
# Revision: 3
# Processed by: cddbd v1.5PL3 Copyright (c) Steve Scherf et al.
# Submitted via: CDex 1.40Release
#
DISCID=b3097b0c
DTITLE=Detlev Jöcker - O, du schöne Spielezeit !
DYEAR=1900
DGENRE=Kids
TTITLE0=Guten Tag, liebe Leute
TTITLE1=Wackelpuding, Wackelpuding
TTITLE2=Das kleine Känguruh
TTITLE3=Kennt ihr den Ri-Ra-Rennemann?
TTITLE4=Fernseh'n gucken, muß das sein?
TTITLE5=In meinem Zauberkoffer
TTITLE6=Wie ich der Umwelt helfen kann
TTITLE7=Ich will mit den Wolken wandern
TTITLE8=Hallo, kleiner Wal
TTITLE9=Das Zahlenlied
TTITLE10=Herr Ribbel von der Waterkant
TTITLE11=Das Spiel ist nun zu Ende
EXTD=
EXTT0=
EXTT1=
EXTT2=
EXTT3=
EXTT4=
EXTT5=
EXTT6=
EXTT7=
EXTT8=
EXTT9=
EXTT10=
EXTT11=
PLAYORDER=
